<svg width="32" height="32" viewBox="0 0 32 32" fill="none" xmlns="http://www.w3.org/2000/svg">
<path d="M30.2734 6.37456L16.2334 0.134558C16.0337 0.0458401 15.8177 0 15.5992 0C15.3808 0 15.1647 0.0458401 14.9651 0.134558L0.92508 6.37456C0.89388 6.3886 0.87204 6.412 0.84084 6.42916C0.79716 6.451 0.75036 6.46504 0.7098 6.49156C0.67548 6.51496 0.64896 6.5446 0.6162 6.56956C0.502169 6.6543 0.402151 6.75643 0.3198 6.8722C0.2886 6.91588 0.25584 6.95488 0.22776 6.99856C0.181329 7.081 0.141679 7.16709 0.1092 7.25596C0.0951599 7.29808 0.0733201 7.33708 0.0608401 7.3792C0.0216614 7.51621 0.00119581 7.6579 0 7.8004V23.4004C0 24.0182 0.36192 24.5751 0.92664 24.8262L14.9666 31.0662C15.1694 31.1567 15.3847 31.2004 15.6 31.2004C15.8172 31.1948 16.0308 31.1438 16.2271 31.0506L16.2334 31.0662L30.2734 24.8262C30.5493 24.7039 30.7838 24.504 30.9483 24.2508C31.1128 23.9977 31.2002 23.7023 31.2 23.4004V7.8004C31.2002 7.49852 31.1128 7.20307 30.9483 6.94995C30.7838 6.69684 30.5493 6.49694 30.2734 6.37456ZM15.6 3.2686L25.7993 7.8004L15.6 12.3322L13.5595 11.4258L5.40228 7.8004L15.6 3.2686ZM17.16 27.2396V15.0544L28.08 10.2012V22.388L17.16 27.2396Z" fill="#D90062"/>
</svg>
