<svg width="32" height="32" viewBox="0 0 32 32" fill="none" xmlns="http://www.w3.org/2000/svg">
<path d="M10.9265 31.1564H12.4844V28.0407H10.9437C10.4639 28.0314 6.25309 27.7712 6.25309 21.8095C6.25309 18.7047 5.21714 16.7528 3.91324 15.5782C5.21714 14.4036 6.25309 12.4516 6.25309 9.34691C6.25309 3.38514 10.4639 3.12499 10.9265 3.11564H12.4844V0H10.9234C8.22996 0.00623128 3.13745 1.96908 3.13745 9.34691C3.13745 13.7088 0.523427 14.0048 0 14.0204L0.0218096 17.136C0.149551 17.136 3.13745 17.189 3.13745 21.8095C3.13745 29.1873 8.22996 31.1502 10.9265 31.1564ZM31.1782 14.0204C31.0505 14.0204 28.0626 13.9674 28.0626 9.34691C28.0626 1.96908 22.97 0.00623128 20.2735 0H18.7156V3.11564H20.2563C20.7361 3.12499 24.9469 3.38514 24.9469 9.34691C24.9469 12.4516 25.9829 14.4036 27.2868 15.5782C25.9829 16.7528 24.9469 18.7047 24.9469 21.8095C24.9469 27.7712 20.7361 28.0314 20.2735 28.0407H18.7156V31.1564H20.2766C22.97 31.1502 28.0626 29.1873 28.0626 21.8095C28.0626 17.4476 30.6766 17.1516 31.2 17.136L31.1782 14.0204Z" fill="#D90062"/>
</svg>
