<svg width="24" height="24" viewBox="0 0 32 32" fill="none" xmlns="http://www.w3.org/2000/svg">
<path d="M1.5597 17.1601H3.11973V28.08C3.11973 29.8007 4.51908 31.2 6.2398 31.2H24.9602C26.6809 31.2 28.0803 29.8007 28.0803 28.08V17.1601H29.6403C29.9488 17.1601 30.2503 17.0686 30.5068 16.8971C30.7633 16.7257 30.9632 16.4821 31.0813 16.1971C31.1993 15.9121 31.2302 15.5985 31.17 15.2959C31.1099 14.9933 30.9614 14.7154 30.7432 14.4972L16.7029 0.457389C16.5582 0.312395 16.3863 0.197365 16.197 0.118881C16.0078 0.0403975 15.8049 0 15.6 0C15.3951 0 15.1922 0.0403975 15.003 0.118881C14.8137 0.197365 14.6418 0.312395 14.4971 0.457389L0.456757 14.4972C0.23865 14.7154 0.0901247 14.9933 0.0299581 15.2959C-0.0302086 15.5985 0.000684778 15.9121 0.118733 16.1971C0.23678 16.4821 0.436682 16.7257 0.693167 16.8971C0.949652 17.0686 1.2512 17.1601 1.5597 17.1601ZM12.4799 28.08V20.2801H18.7201V28.08H12.4799ZM15.6 3.76612L24.9602 13.126V20.2801L24.9618 28.08H21.8401V20.2801C21.8401 18.5594 20.4408 17.1601 18.7201 17.1601H12.4799C10.7592 17.1601 9.35987 18.5594 9.35987 20.2801V28.08H6.2398V13.126L15.6 3.76612Z" />
</svg>
